<!DOCTYPE svg PUBLIC "-//W3C//DTD SVG 1.1//EN" "http://www.w3.org/Graphics/SVG/1.1/DTD/svg11.dtd">
<!-- Uploaded to: SVG Repo, www.svgrepo.com, Transformed by: SVG Repo Mixer Tools -->
<svg height="800px" width="800px" version="1.1" id="Layer_1" xmlns="http://www.w3.org/2000/svg" xmlns:xlink="http://www.w3.org/1999/xlink" viewBox="0 0 508 508" xml:space="preserve" fill="#000000" data-darkreader-inline-fill="" style="--darkreader-inline-fill: var(--darkreader-background-000000, #000000);">
<g id="SVGRepo_bgCarrier" stroke-width="0"/>
<g id="SVGRepo_tracerCarrier" stroke-linecap="round" stroke-linejoin="round"/>
<g id="SVGRepo_iconCarrier"> <circle style="fill: rgb(132, 219, 255); --darkreader-inline-fill: var(--darkreader-text-84dbff, #76d7ff);" cx="254" cy="254" r="254" data-darkreader-inline-fill=""/> <path style="fill: rgb(230, 233, 238); --darkreader-inline-fill: var(--darkreader-text-e6e9ee, #dbd8d3);" d="M188,499.2c21.2,5.6,43.2,8.8,66,8.8s45.2-3.2,66-8.8H188z" data-darkreader-inline-fill=""/> <g> <circle style="fill: rgb(255, 255, 255); --darkreader-inline-fill: var(--darkreader-text-ffffff, #e8e6e3);" cx="304.8" cy="156" r="18.8" data-darkreader-inline-fill=""/> <circle style="fill: rgb(255, 255, 255); --darkreader-inline-fill: var(--darkreader-text-ffffff, #e8e6e3);" cx="406.8" cy="156" r="18.8" data-darkreader-inline-fill=""/> <circle style="fill: rgb(255, 255, 255); --darkreader-inline-fill: var(--darkreader-text-ffffff, #e8e6e3);" cx="203.2" cy="156" r="18.8" data-darkreader-inline-fill=""/> <path style="fill: rgb(255, 255, 255); --darkreader-inline-fill: var(--darkreader-text-ffffff, #e8e6e3);" d="M344.8,220v26h-10.4l-2.4-26.4c0-1.2-1.2-2.4-2.4-2.4c-1.2,0-2.4,1.2-2.4,2.4V246h-44v-26 c0-1.2-1.2-2.4-2.4-2.4c-1.2,0-2.4,0.8-2.4,2.4l-2.8,26h-10.4v-24.8c0-21.6,16.8-40,38.8-40.4C326.4,179.6,344.8,198,344.8,220z" data-darkreader-inline-fill=""/> <path style="fill: rgb(255, 255, 255); --darkreader-inline-fill: var(--darkreader-text-ffffff, #e8e6e3);" d="M446.4,220v26H436l-2.4-26.4c0-1.2-1.2-2.4-2.4-2.4c-1.6,0-2.4,1.2-2.4,2.4V246h-44v-26 c0-1.2-1.2-2.4-2.4-2.4c-1.2,0-2.4,0.8-2.4,2.4l-2.8,26h-10.4v-24.8c0-21.6,16.8-40,38.8-40.4C428,179.6,446.4,198,446.4,220z" data-darkreader-inline-fill=""/> <path style="fill: rgb(255, 255, 255); --darkreader-inline-fill: var(--darkreader-text-ffffff, #e8e6e3);" d="M242.8,220v26h-10.4l-2.4-26.4c0-1.2-1.2-2.4-2.4-2.4c-1.6,0-2.4,1.2-2.4,2.4V246h-44v-26 c0-1.2-1.2-2.4-2.4-2.4s-2.4,0.8-2.4,2.4l-2.8,26h-10.4v-24.8c0-21.6,16.8-40,38.8-40.4C224.4,179.6,242.8,198,242.8,220z" data-darkreader-inline-fill=""/> <path style="fill: rgb(255, 255, 255); --darkreader-inline-fill: var(--darkreader-text-ffffff, #e8e6e3);" d="M141.2,220v26h-10.4l-2.4-26.4c0-1.2-1.2-2.4-2.4-2.4c-1.6,0-2.4,1.2-2.4,2.4V246h-44v-26 c0-1.2-1.2-2.4-2.4-2.4c-1.2,0-2.4,0.8-2.4,2.4L72,246H61.6v-24.8c0-21.6,16.8-40,38.8-40.4C122.4,179.6,141.2,198,141.2,220z" data-darkreader-inline-fill=""/> <circle style="fill: rgb(255, 255, 255); --darkreader-inline-fill: var(--darkreader-text-ffffff, #e8e6e3);" cx="101.2" cy="156" r="18.8" data-darkreader-inline-fill=""/> </g> <path style="fill: rgb(230, 233, 238); --darkreader-inline-fill: var(--darkreader-text-e6e9ee, #dbd8d3);" d="M0,246c0,2.8,0,5.2,0,8c0,140.4,113.6,254,254,254s254-113.6,254-254c0-2.8,0-5.6,0-8H0z" data-darkreader-inline-fill=""/> <path style="fill: rgb(84, 192, 235); --darkreader-inline-fill: var(--darkreader-text-54c0eb, #5ac2ec);" d="M0.4,264.4C6,400,117.2,508,254,508s248.4-108.4,253.6-243.6H0.4z" data-darkreader-inline-fill=""/> <g> <path style="fill: rgb(255, 255, 255); --darkreader-inline-fill: var(--darkreader-text-ffffff, #e8e6e3);" d="M419.2,375.2v14H406l-1.2-14.4c0-1.6-1.2-2.8-2.8-2.8c-1.6,0-2.8,1.2-2.8,2.8v14.4H348v-14.4 c0-1.6-1.2-2.8-2.8-2.8c-1.6,0-2.8,1.2-2.8,2.8l-1.2,14.4H328v-12.8c0-24.8,19.6-46,44.4-46.8C398,328.4,419.2,349.2,419.2,375.2z" data-darkreader-inline-fill=""/> <circle style="fill: rgb(255, 255, 255); --darkreader-inline-fill: var(--darkreader-text-ffffff, #e8e6e3);" cx="373.2" cy="301.2" r="21.6" data-darkreader-inline-fill=""/> <path style="fill: rgb(255, 255, 255); --darkreader-inline-fill: var(--darkreader-text-ffffff, #e8e6e3);" d="M299.6,375.2v14h-13.2l-1.2-14.4c0-1.6-1.6-2.8-2.8-2.8c-1.6,0-2.8,1.2-2.8,2.8v14.4h-50.8v-14.4 c0-1.6-1.2-2.8-2.8-2.8s-2.8,1.2-2.8,2.8l-1.2,14.4h-13.2v-12.8c0-24.8,19.6-46,44.4-46.8C278.4,328.4,299.6,349.2,299.6,375.2z" data-darkreader-inline-fill=""/> <circle style="fill: rgb(255, 255, 255); --darkreader-inline-fill: var(--darkreader-text-ffffff, #e8e6e3);" cx="254" cy="301.2" r="21.6" data-darkreader-inline-fill=""/> <path style="fill: rgb(255, 255, 255); --darkreader-inline-fill: var(--darkreader-text-ffffff, #e8e6e3);" d="M180.4,375.2v14h-13.2l-1.2-14.4c0-1.6-1.2-2.8-2.8-2.8s-2.8,1.2-2.8,2.8v14.4h-50.8v-14.4 c0-1.6-1.2-2.8-2.8-2.8c-1.6,0-2.8,1.2-2.8,2.8l-1.2,14.4H89.6v-12.8c0-24.8,19.6-46,44.4-46.8 C159.2,328.4,180.4,349.2,180.4,375.2z" data-darkreader-inline-fill=""/> <circle style="fill: rgb(255, 255, 255); --darkreader-inline-fill: var(--darkreader-text-ffffff, #e8e6e3);" cx="134.8" cy="301.2" r="21.6" data-darkreader-inline-fill=""/> </g> <path style="fill: rgb(230, 233, 238); --darkreader-inline-fill: var(--darkreader-text-e6e9ee, #dbd8d3);" d="M38.8,388.8C83.6,460.4,163.2,508,254,508s170.4-47.6,215.2-119.2H38.8z" data-darkreader-inline-fill=""/> <path style="fill: rgb(84, 192, 235); --darkreader-inline-fill: var(--darkreader-text-54c0eb, #5ac2ec);" d="M53.6,410c46.4,59.6,118.8,98,200.4,98c81.2,0,153.6-38.4,200.4-98H53.6z" data-darkreader-inline-fill=""/> </g>
</svg>