<!DOCTYPE svg PUBLIC "-//W3C//DTD SVG 1.1//EN" "http://www.w3.org/Graphics/SVG/1.1/DTD/svg11.dtd">
<!-- Uploaded to: SVG Repo, www.svgrepo.com, Transformed by: SVG Repo Mixer Tools -->
<svg height="800px" width="800px" version="1.1" id="Layer_1" xmlns="http://www.w3.org/2000/svg" xmlns:xlink="http://www.w3.org/1999/xlink" viewBox="0 0 297 297" xml:space="preserve" fill="#000000" data-darkreader-inline-fill="" style="--darkreader-inline-fill: var(--darkreader-background-000000, #000000);">
<g id="SVGRepo_bgCarrier" stroke-width="0"/>
<g id="SVGRepo_tracerCarrier" stroke-linecap="round" stroke-linejoin="round"/>
<g id="SVGRepo_iconCarrier"> <g id="XMLID_40_"> <g> <path d="M265.75,10v277c0,5.52-4.47,10-10,10h-148.5c-5.52,0-10-4.48-10-10V175h-39.5c-14.61,0-26.5-11.89-26.5-26.5 S43.14,122,57.75,122h39.5V10c0-5.52,4.48-10,10-10h148.5C261.28,0,265.75,4.48,265.75,10z M245.75,277V20h-128.5v102h26.32 l-11.64-17.45c-2.04-3.07-2.23-7.02-0.49-10.27c1.74-3.25,5.13-5.28,8.81-5.28h44c3.35,0,6.47,1.67,8.32,4.45l33,49.5 c2.24,3.36,2.24,7.74,0,11.1l-33,49.5c-1.85,2.78-4.97,4.45-8.32,4.45h-44c-3.68,0-7.07-2.03-8.81-5.28 c-1.74-3.25-1.55-7.2,0.49-10.27L143.57,175h-26.32v102H245.75z M205.23,148.5L178.9,109h-19.96l11.63,17.45 c2.05,3.07,2.24,7.02,0.5,10.27s-5.13,5.28-8.82,5.28H57.75c-3.58,0-6.5,2.92-6.5,6.5s2.92,6.5,6.5,6.5h104.5 c3.69,0,7.08,2.03,8.82,5.28s1.55,7.2-0.5,10.27L158.94,188h19.96L205.23,148.5z"/> <path style="fill: rgb(153, 171, 213); --darkreader-inline-fill: var(--darkreader-text-99abd5, #93b2d3);" d="M245.75,20v257h-128.5V175h26.32l-11.64,17.45c-2.04,3.07-2.23,7.02-0.49,10.27 c1.74,3.25,5.13,5.28,8.81,5.28h44c3.35,0,6.47-1.67,8.32-4.45l33-49.5c2.24-3.36,2.24-7.74,0-11.1l-33-49.5 c-1.85-2.78-4.97-4.45-8.32-4.45h-44c-3.68,0-7.07,2.03-8.81,5.28c-1.74,3.25-1.55,7.2,0.49,10.27L143.57,122h-26.32V20H245.75z" data-darkreader-inline-fill=""/> <path style="fill: rgb(80, 101, 161); --darkreader-inline-fill: var(--darkreader-text-5065a1, #7c9bbe);" d="M178.9,109l26.33,39.5L178.9,188h-19.96l11.63-17.45c2.05-3.07,2.24-7.02,0.5-10.27 s-5.13-5.28-8.82-5.28H57.75c-3.58,0-6.5-2.92-6.5-6.5s2.92-6.5,6.5-6.5h104.5c3.69,0,7.08-2.03,8.82-5.28s1.55-7.2-0.5-10.27 L158.94,109H178.9z" data-darkreader-inline-fill=""/> </g> </g> </g>
</svg>