<!DOCTYPE svg PUBLIC "-//W3C//DTD SVG 1.1//EN" "http://www.w3.org/Graphics/SVG/1.1/DTD/svg11.dtd">

<!-- Uploaded to: SVG Repo, www.svgrepo.com, Transformed by: SVG Repo Mixer Tools -->
<svg width="800px" height="800px" viewBox="0 0 20 20" xmlns="http://www.w3.org/2000/svg" fill="#000000" data-darkreader-inline-fill="" style="--darkreader-inline-fill: var(--darkreader-background-000000, #000000);">

<g id="SVGRepo_bgCarrier" stroke-width="0"/>

<g id="SVGRepo_tracerCarrier" stroke-linecap="round" stroke-linejoin="round"/>

<g id="SVGRepo_iconCarrier"> <g id="trophy-3" transform="translate(-2 -2)"> <path id="secondary" fill="#2ca9bc" d="M7,3H17v8a5,5,0,0,1-5,5h0a5,5,0,0,1-5-5Z" data-darkreader-inline-fill="" style="--darkreader-inline-fill: var(--darkreader-background-2ca9bc, #238796);"/> <path id="primary" d="M14,15.58A6.73,6.73,0,0,0,17,21H7a6.73,6.73,0,0,0,3-5.42" fill="none" stroke="#000000" stroke-linecap="round" stroke-linejoin="round" stroke-width="2" data-darkreader-inline-stroke="" style="--darkreader-inline-stroke: var(--darkreader-text-000000, #e8e6e3);"/> <path id="primary-2" data-name="primary" d="M17,11h0V5h3a1,1,0,0,1,1,1V7A4,4,0,0,1,17,11ZM7,11H7V5H4A1,1,0,0,0,3,6V7A4,4,0,0,0,7,11Zm10,0V3H7v8a5,5,0,0,0,5,5h0A5,5,0,0,0,17,11Zm1,10H6" fill="none" stroke="#000000" stroke-linecap="round" stroke-linejoin="round" stroke-width="2" data-darkreader-inline-stroke="" style="--darkreader-inline-stroke: var(--darkreader-text-000000, #e8e6e3);"/> </g> </g>

</svg>