<!DOCTYPE svg PUBLIC "-//W3C//DTD SVG 1.1//EN" "http://www.w3.org/Graphics/SVG/1.1/DTD/svg11.dtd">
<!-- Uploaded to: SVG Repo, www.svgrepo.com, Transformed by: SVG Repo Mixer Tools -->
<svg width="800px" height="800px" viewBox="0 0 20 20" xmlns="http://www.w3.org/2000/svg" fill="#000000" data-darkreader-inline-fill="" style="--darkreader-inline-fill: var(--darkreader-background-000000, #000000);">
<g id="SVGRepo_bgCarrier" stroke-width="0"/>
<g id="SVGRepo_tracerCarrier" stroke-linecap="round" stroke-linejoin="round"/>
<g id="SVGRepo_iconCarrier"> <g id="trophy-1st-place-2" transform="translate(-2 -2)"> <path id="secondary" fill="#2ca9bc" d="M7,9.57a6.78,6.78,0,0,0,4.26,6.29h0a2,2,0,0,0,1.48,0h0A6.78,6.78,0,0,0,17,9.57V3H7Z" data-darkreader-inline-fill="" style="--darkreader-inline-fill: var(--darkreader-background-2ca9bc, #238796);"/> <path id="primary" d="M17.17,5H20a1,1,0,0,1,1,1V7a4,4,0,0,1-4,4h0" fill="none" stroke="#000000" stroke-linecap="round" stroke-linejoin="round" stroke-width="2" data-darkreader-inline-stroke="" style="--darkreader-inline-stroke: var(--darkreader-text-000000, #e8e6e3);"/> <path id="primary-2" data-name="primary" d="M6.74,5H4A1,1,0,0,0,3,6V7a4,4,0,0,0,4,4H7" fill="none" stroke="#000000" stroke-linecap="round" stroke-linejoin="round" stroke-width="2" data-darkreader-inline-stroke="" style="--darkreader-inline-stroke: var(--darkreader-text-000000, #e8e6e3);"/> <path id="primary-3" data-name="primary" d="M11,8l1-1v4" fill="none" stroke="#000000" stroke-linecap="round" stroke-linejoin="round" stroke-width="2" data-darkreader-inline-stroke="" style="--darkreader-inline-stroke: var(--darkreader-text-000000, #e8e6e3);"/> <path id="primary-4" data-name="primary" d="M11,11h2M8,21h8M7,3H17V9.57a6.78,6.78,0,0,1-4.26,6.29h0a2,2,0,0,1-1.48,0h0A6.78,6.78,0,0,1,7,9.57Zm5,13.18V21" fill="none" stroke="#000000" stroke-linecap="round" stroke-linejoin="round" stroke-width="2" data-darkreader-inline-stroke="" style="--darkreader-inline-stroke: var(--darkreader-text-000000, #e8e6e3);"/> </g> </g>
</svg>